<svg xmlns="http://www.w3.org/2000/svg" xmlns:xlink="http://www.w3.org/1999/xlink" aria-hidden="true" role="img" class="iconify iconify--logos" width="31.88" height="32" preserveAspectRatio="xMidYMid meet" viewBox="0 0 256 257">
  <defs>
    <linearGradient id="IconifyId1813088fe1fbc01fb466" x1="-.828%" x2="57.636%" y1="7.652%" y2="78.411%">
      <stop offset="0%" stop-color="#003366"></stop>
      <stop offset="100%" stop-color="#2ecc71"></stop>
    </linearGradient>
  </defs>
  <path fill="url(#IconifyId1813088fe1fbc01fb466)" d="M128 0C57.3 0 0 57.3 0 128s57.3 128 128 128s128-57.3 128-128S198.7 0 128 0zm0 240c-61.9 0-112-50.1-112-112S66.1 16 128 16s112 50.1 112 112s-50.1 112-112 112z"></path>
  <path fill="#003366" d="M128 48c-44.2 0-80 35.8-80 80s35.8 80 80 80s80-35.8 80-80s-35.8-80-80-80zm0 144c-35.3 0-64-28.7-64-64s28.7-64 64-64s64 28.7 64 64s-28.7 64-64 64z"></path>
  <circle cx="128" cy="128" r="32" fill="#2ecc71"></circle>
</svg>
